<mxfile host="app.diagrams.net" modified="2024-03-29T20:02:50.235Z" agent="Mozilla/5.0 (Macintosh; Intel Mac OS X 10_15_7) AppleWebKit/537.36 (KHTML, like Gecko) Chrome/120.0.0.0 Safari/537.36" etag="Nb-JWWF4XY0L4bkTvA-c" version="24.2.1" type="device">
  <diagram name="Страница — 1" id="-NAUHrW34tdx5ToVmwLK">
    <mxGraphModel dx="1728" dy="911" grid="1" gridSize="10" guides="1" tooltips="1" connect="1" arrows="1" fold="1" page="1" pageScale="1" pageWidth="827" pageHeight="1169" math="0" shadow="0">
      <root>
        <mxCell id="0" />
        <mxCell id="1" parent="0" />
        <mxCell id="cwPF90B0OfzfSj121SBU-2" value="POSTGRES" style="shape=cylinder3;whiteSpace=wrap;html=1;boundedLbl=1;backgroundOutline=1;size=15;fillColor=#bac8d3;strokeColor=#23445d;" vertex="1" parent="1">
          <mxGeometry x="310" y="610" width="90" height="110" as="geometry" />
        </mxCell>
        <mxCell id="cwPF90B0OfzfSj121SBU-3" value="PYTHON&lt;div&gt;BOT&lt;/div&gt;" style="whiteSpace=wrap;html=1;aspect=fixed;fillColor=#cce5ff;strokeColor=#36393d;" vertex="1" parent="1">
          <mxGeometry x="300" y="420" width="110" height="110" as="geometry" />
        </mxCell>
        <mxCell id="cwPF90B0OfzfSj121SBU-5" value="" style="endArrow=classic;html=1;rounded=0;" edge="1" parent="1">
          <mxGeometry width="50" height="50" relative="1" as="geometry">
            <mxPoint x="350" y="600" as="sourcePoint" />
            <mxPoint x="350" y="540" as="targetPoint" />
          </mxGeometry>
        </mxCell>
        <mxCell id="cwPF90B0OfzfSj121SBU-6" value="" style="endArrow=classic;html=1;rounded=0;" edge="1" parent="1">
          <mxGeometry width="50" height="50" relative="1" as="geometry">
            <mxPoint x="360" y="540" as="sourcePoint" />
            <mxPoint x="360" y="600" as="targetPoint" />
          </mxGeometry>
        </mxCell>
        <mxCell id="cwPF90B0OfzfSj121SBU-7" value="WILDBERRIES&lt;div&gt;API&lt;/div&gt;" style="ellipse;shape=cloud;whiteSpace=wrap;html=1;strokeColor=#990099;fontColor=#990099;" vertex="1" parent="1">
          <mxGeometry x="80" y="270" width="140" height="110" as="geometry" />
        </mxCell>
        <mxCell id="cwPF90B0OfzfSj121SBU-8" value="" style="endArrow=classic;html=1;rounded=0;" edge="1" parent="1">
          <mxGeometry width="50" height="50" relative="1" as="geometry">
            <mxPoint x="290" y="420" as="sourcePoint" />
            <mxPoint x="200" y="370" as="targetPoint" />
          </mxGeometry>
        </mxCell>
        <mxCell id="cwPF90B0OfzfSj121SBU-9" value="" style="endArrow=classic;html=1;rounded=0;" edge="1" parent="1">
          <mxGeometry width="50" height="50" relative="1" as="geometry">
            <mxPoint x="210" y="360" as="sourcePoint" />
            <mxPoint x="300" y="410" as="targetPoint" />
          </mxGeometry>
        </mxCell>
        <mxCell id="cwPF90B0OfzfSj121SBU-10" value="TELEGRAM&lt;div&gt;CLIENT&lt;/div&gt;" style="ellipse;whiteSpace=wrap;html=1;aspect=fixed;fontColor=#0000FF;strokeColor=#0000FF;" vertex="1" parent="1">
          <mxGeometry x="680" y="220" width="100" height="100" as="geometry" />
        </mxCell>
        <mxCell id="cwPF90B0OfzfSj121SBU-15" value="" style="endArrow=classic;html=1;rounded=0;" edge="1" parent="1">
          <mxGeometry width="50" height="50" relative="1" as="geometry">
            <mxPoint x="570" y="269.66" as="sourcePoint" />
            <mxPoint x="670" y="269.66" as="targetPoint" />
          </mxGeometry>
        </mxCell>
        <mxCell id="cwPF90B0OfzfSj121SBU-16" value="" style="endArrow=classic;html=1;rounded=0;" edge="1" parent="1">
          <mxGeometry width="50" height="50" relative="1" as="geometry">
            <mxPoint x="670" y="280" as="sourcePoint" />
            <mxPoint x="570" y="280" as="targetPoint" />
          </mxGeometry>
        </mxCell>
        <mxCell id="cwPF90B0OfzfSj121SBU-17" value="TELEGRAM PLATFORM" style="rounded=1;whiteSpace=wrap;html=1;strokeColor=#0000FF;fontColor=#0000FF;" vertex="1" parent="1">
          <mxGeometry x="440" y="245" width="120" height="60" as="geometry" />
        </mxCell>
        <mxCell id="cwPF90B0OfzfSj121SBU-18" value="" style="endArrow=classic;html=1;rounded=0;" edge="1" parent="1">
          <mxGeometry width="50" height="50" relative="1" as="geometry">
            <mxPoint x="470" y="310" as="sourcePoint" />
            <mxPoint x="410" y="410" as="targetPoint" />
          </mxGeometry>
        </mxCell>
        <mxCell id="cwPF90B0OfzfSj121SBU-19" value="" style="endArrow=classic;html=1;rounded=0;" edge="1" parent="1">
          <mxGeometry width="50" height="50" relative="1" as="geometry">
            <mxPoint x="400" y="410" as="sourcePoint" />
            <mxPoint x="460" y="310" as="targetPoint" />
          </mxGeometry>
        </mxCell>
        <mxCell id="cwPF90B0OfzfSj121SBU-20" value="" style="endArrow=none;dashed=1;html=1;dashPattern=1 3;strokeWidth=2;rounded=0;" edge="1" parent="1">
          <mxGeometry width="50" height="50" relative="1" as="geometry">
            <mxPoint x="420" y="210" as="sourcePoint" />
            <mxPoint x="800" y="210" as="targetPoint" />
          </mxGeometry>
        </mxCell>
        <mxCell id="cwPF90B0OfzfSj121SBU-21" value="" style="endArrow=none;dashed=1;html=1;dashPattern=1 3;strokeWidth=2;rounded=0;" edge="1" parent="1">
          <mxGeometry width="50" height="50" relative="1" as="geometry">
            <mxPoint x="420" y="330" as="sourcePoint" />
            <mxPoint x="800" y="330" as="targetPoint" />
          </mxGeometry>
        </mxCell>
        <mxCell id="cwPF90B0OfzfSj121SBU-22" value="" style="endArrow=none;dashed=1;html=1;dashPattern=1 3;strokeWidth=2;rounded=0;" edge="1" parent="1">
          <mxGeometry width="50" height="50" relative="1" as="geometry">
            <mxPoint x="420" y="210" as="sourcePoint" />
            <mxPoint x="420" y="330" as="targetPoint" />
          </mxGeometry>
        </mxCell>
        <mxCell id="cwPF90B0OfzfSj121SBU-23" value="" style="endArrow=none;dashed=1;html=1;dashPattern=1 3;strokeWidth=2;rounded=0;" edge="1" parent="1">
          <mxGeometry width="50" height="50" relative="1" as="geometry">
            <mxPoint x="800" y="210" as="sourcePoint" />
            <mxPoint x="800" y="330" as="targetPoint" />
          </mxGeometry>
        </mxCell>
      </root>
    </mxGraphModel>
  </diagram>
</mxfile>
